<svg width="24" height="24" viewBox="0 0 24 24" fill="none" xmlns="http://www.w3.org/2000/svg">
<g id="checkroom" clip-path="url(#clip0_93_163)">
<path id="Vector" d="M21.6022 16.2031L13.0022 9.75309V8.84309C14.6522 8.35309 15.8022 6.67309 15.4322 4.79309C15.1722 3.48309 14.1322 2.39309 12.8222 2.09309C10.5422 1.57309 8.50221 3.30309 8.50221 5.50309H10.5022C10.5022 4.67309 11.1722 4.00309 12.0022 4.00309C12.8322 4.00309 13.5022 4.67309 13.5022 5.50309C13.5022 6.34309 12.8122 7.02309 11.9722 7.00309C11.4322 6.99309 11.0022 7.45309 11.0022 7.99309V9.75309L2.40221 16.2031C1.63221 16.7831 2.04221 18.0031 3.00221 18.0031H21.0022C21.9622 18.0031 22.3722 16.7831 21.6022 16.2031ZM6.00221 16.0031L12.0022 11.5031L18.0022 16.0031H6.00221Z" fill="black"/>
<path id="Vector_2" d="M23 19.25H23.75V18.5V16.5V15.75H23H21.25V14V13.25H20.5H18.5H17.75V14V15.75H16H15.25V16.5V18.5V19.25H16H17.75V21V21.75H18.5H20.5H21.25V21V19.25H23Z" fill="black" stroke="white" stroke-width="1.5"/>
</g>
<defs>
<clipPath id="clip0_93_163">
<rect width="24" height="24" fill="white"/>
</clipPath>
</defs>
</svg>
